<svg width="179" height="106" viewBox="0 0 179 106" fill="none" xmlns="http://www.w3.org/2000/svg">
<g clip-path="url(#clip0_87_721)">
<path d="M167.296 95.993C170.235 43.708 80.589 57.558 85.369 77.749C90.148 97.94 155.411 48.295 139.492 19.858C123.575 -8.57898 83.515 10.736 75.359 15.297C67.204 19.859 28.279 46.874 8.63097 92.134M15.536 92.468C15.536 96.205 12.512 99.234 8.78098 99.234C5.05098 99.234 2.02597 96.205 2.02597 92.468C2.02597 88.731 5.05098 85.702 8.78098 85.702C12.512 85.702 15.536 88.731 15.536 92.468ZM174.272 95.851C174.272 99.588 171.248 102.617 167.517 102.617C163.786 102.617 160.762 99.588 160.762 95.851C160.762 92.114 163.786 89.085 167.517 89.085C171.248 89.085 174.272 92.114 174.272 95.851Z" stroke="#FF6E02" stroke-width="2" stroke-linecap="round" stroke-linejoin="round" stroke-dasharray="1 1"/>
</g>
<defs>
<clipPath id="clip0_87_721">
<rect width="106" height="179" fill="white" transform="matrix(0 1 -1 0 179 0)"/>
</clipPath>
</defs>
</svg>
