<svg width="247" height="69" viewBox="0 0 247 69" fill="none" xmlns="http://www.w3.org/2000/svg">
<path d="M10.716 56.236C10.716 56.236 38.876 9.08704 88.573 3.40604C138.271 -2.27596 172.885 11.384 233.016 57.669M10.586 50.115C14.483 50.115 17.643 53.285 17.643 57.197C17.643 61.108 14.483 64.279 10.586 64.279C6.68801 64.279 3.52901 61.108 3.52901 57.197C3.52901 53.285 6.68801 50.115 10.586 50.115ZM232.886 50.115C236.783 50.115 239.943 53.285 239.943 57.197C239.943 61.108 236.783 64.279 232.886 64.279C228.988 64.279 225.829 61.108 225.829 57.197C225.829 53.285 228.988 50.115 232.886 50.115Z" stroke="#FF6E02" stroke-width="2" stroke-linecap="round" stroke-linejoin="round" stroke-dasharray="1 1"/>
</svg>
