<svg width="255" height="107" viewBox="0 0 255 107" fill="none" xmlns="http://www.w3.org/2000/svg">
<g clip-path="url(#clip0_87_717)">
<path d="M242.296 49.6751C242.296 49.6751 207.107 91.8385 157.133 89.6752C107.158 87.5128 75.1068 68.6061 22.9567 13.4844M241.466 55.7411C237.617 55.1315 234.992 51.5062 235.604 47.6423C236.216 43.7795 239.833 41.1419 243.682 41.7515C247.532 42.3613 250.156 45.9874 249.544 49.8503C248.933 53.7141 245.316 56.3509 241.466 55.7411ZM21.9034 20.9657C18.0543 20.3561 15.4292 16.7308 16.0411 12.867C16.6529 9.00411 20.2701 6.36649 24.1191 6.97611C27.9691 7.58589 30.5932 11.212 29.9814 15.0749C29.3694 18.9387 25.7534 21.5755 21.9034 20.9657Z" stroke="#FF6E02" stroke-width="2" stroke-linecap="round" stroke-linejoin="round" stroke-dasharray="1 1"/>
</g>
<defs>
<clipPath id="clip0_87_717">
<rect width="247" height="69" fill="white" transform="translate(244.082 106.895) rotate(-171)"/>
</clipPath>
</defs>
</svg>
